<?xml version="1.0" ?><svg width="24px" height="24px" viewBox="0 0 24 24" id="Main" xmlns="http://www.w3.org/2000/svg"><title/><path d="M21.41,7.91a1,1,0,0,0,0-1.82l-9-4h0A1,1,0,0,0,12,2H12a1,1,0,0,0-.33.06l-.07,0-.11.05-.14.11,0,0a1,1,0,0,0-.18.27l0,.07A1,1,0,0,0,11,3V15c-3.74.12-9,1-9,3.48C2,21.26,8.29,22,12,22s10-.74,10-3.5C22,16,16.74,15.14,13,15V11.65ZM13,9.46V4.54L18.54,7Zm6.94,9C19.4,19,16.75,20,12,20s-7.4-1-7.94-1.5C4.56,18,6.9,17.15,11,17v1a1,1,0,0,0,2,0V17C17.1,17.15,19.44,18,19.94,18.5Z"/></svg>